G04 #@! TF.GenerationSoftware,KiCad,Pcbnew,9.0.7*
G04 #@! TF.CreationDate,2026-02-22T21:24:28+09:00*
G04 #@! TF.ProjectId,vdp_cartridge,7664705f-6361-4727-9472-696467652e6b,rev?*
G04 #@! TF.SameCoordinates,Original*
G04 #@! TF.FileFunction,Soldermask,Top*
G04 #@! TF.FilePolarity,Negative*
%FSLAX46Y46*%
G04 Gerber Fmt 4.6, Leading zero omitted, Abs format (unit mm)*
G04 Created by KiCad (PCBNEW 9.0.7) date 2026-02-22 21:24:28*
%MOMM*%
%LPD*%
G01*
G04 APERTURE LIST*
G04 Aperture macros list*
%AMRoundRect*
0 Rectangle with rounded corners*
0 $1 Rounding radius*
0 $2 $3 $4 $5 $6 $7 $8 $9 X,Y pos of 4 corners*
0 Add a 4 corners polygon primitive as box body*
4,1,4,$2,$3,$4,$5,$6,$7,$8,$9,$2,$3,0*
0 Add four circle primitives for the rounded corners*
1,1,$1+$1,$2,$3*
1,1,$1+$1,$4,$5*
1,1,$1+$1,$6,$7*
1,1,$1+$1,$8,$9*
0 Add four rect primitives between the rounded corners*
20,1,$1+$1,$2,$3,$4,$5,0*
20,1,$1+$1,$4,$5,$6,$7,0*
20,1,$1+$1,$6,$7,$8,$9,0*
20,1,$1+$1,$8,$9,$2,$3,0*%
%AMFreePoly0*
4,1,21,0.153073,0.369552,0.243505,0.317341,0.317341,0.243505,0.369552,0.153073,0.396578,0.052210,0.400000,0.000000,0.400000,-1.500000,0.850000,-1.500000,0.850000,-10.500000,-0.850000,-10.500000,-0.850000,-1.500000,-0.400000,-1.500000,-0.400000,0.000000,-0.396578,0.052210,-0.369552,0.153073,-0.317341,0.243505,-0.243505,0.317341,-0.153073,0.369552,-0.052210,0.396578,0.052210,0.396578,
0.153073,0.369552,0.153073,0.369552,$1*%
%AMFreePoly1*
4,1,21,0.153073,0.369552,0.243505,0.317341,0.317341,0.243505,0.369552,0.153073,0.396578,0.052210,0.400000,0.000000,0.400000,-1.500000,0.850000,-1.500000,0.850000,-9.000000,-0.850000,-9.000000,-0.850000,-1.500000,-0.400000,-1.500000,-0.400000,0.000000,-0.396578,0.052210,-0.369552,0.153073,-0.317341,0.243505,-0.243505,0.317341,-0.153073,0.369552,-0.052210,0.396578,0.052210,0.396578,
0.153073,0.369552,0.153073,0.369552,$1*%
G04 Aperture macros list end*
%ADD10RoundRect,0.250000X-0.262500X-0.450000X0.262500X-0.450000X0.262500X0.450000X-0.262500X0.450000X0*%
%ADD11RoundRect,0.250000X0.262500X0.450000X-0.262500X0.450000X-0.262500X-0.450000X0.262500X-0.450000X0*%
%ADD12RoundRect,0.140000X0.170000X-0.140000X0.170000X0.140000X-0.170000X0.140000X-0.170000X-0.140000X0*%
%ADD13RoundRect,0.140000X-0.170000X0.140000X-0.170000X-0.140000X0.170000X-0.140000X0.170000X0.140000X0*%
%ADD14RoundRect,0.250000X0.475000X-0.250000X0.475000X0.250000X-0.475000X0.250000X-0.475000X-0.250000X0*%
%ADD15RoundRect,0.250000X-1.100000X0.325000X-1.100000X-0.325000X1.100000X-0.325000X1.100000X0.325000X0*%
%ADD16C,2.000000*%
%ADD17C,1.524000*%
%ADD18C,3.200000*%
%ADD19C,6.000000*%
%ADD20FreePoly0,0.000000*%
%ADD21FreePoly1,0.000000*%
%ADD22R,0.450000X1.750000*%
%ADD23RoundRect,0.100000X-0.500000X0.800000X-0.500000X-0.800000X0.500000X-0.800000X0.500000X0.800000X0*%
%ADD24R,0.600000X1.000000*%
G04 APERTURE END LIST*
G36*
X73954000Y-156231600D02*
G01*
X139359000Y-156231600D01*
X139359000Y-165858200D01*
X73954000Y-165858200D01*
X73954000Y-156231600D01*
G37*
D10*
X132737500Y-131950000D03*
X134562500Y-131950000D03*
D11*
X134562500Y-129600000D03*
X132737500Y-129600000D03*
X134562500Y-134350000D03*
X132737500Y-134350000D03*
D12*
X124550000Y-139105000D03*
X124550000Y-138145000D03*
D13*
X124550000Y-132995000D03*
X124550000Y-133955000D03*
D12*
X108300000Y-139105000D03*
X108300000Y-138145000D03*
D13*
X108300000Y-133020000D03*
X108300000Y-133980000D03*
D12*
X92000000Y-139105000D03*
X92000000Y-138145000D03*
D13*
X92000000Y-133020000D03*
X92000000Y-133980000D03*
D14*
X104650000Y-92662500D03*
X104650000Y-90762500D03*
D13*
X97950000Y-91232500D03*
X97950000Y-92192500D03*
D15*
X68150000Y-134975000D03*
X68150000Y-137925000D03*
D16*
X142194600Y-86623400D03*
X139654600Y-86623400D03*
X137114600Y-86623400D03*
D17*
X97040000Y-117850000D03*
X99580000Y-117850000D03*
X102120000Y-117850000D03*
X104660000Y-117850000D03*
X107200000Y-117850000D03*
X109740000Y-117850000D03*
X112280000Y-117850000D03*
X114820000Y-117850000D03*
X117360000Y-117850000D03*
X119900000Y-117850000D03*
X122440000Y-117850000D03*
X124980000Y-117850000D03*
X127520000Y-117850000D03*
X130060000Y-117850000D03*
X132600000Y-117850000D03*
X135140000Y-117850000D03*
X137680000Y-117850000D03*
X140220000Y-117850000D03*
X142760000Y-117850000D03*
X145300000Y-117850000D03*
X145300000Y-97530000D03*
X142760000Y-97530000D03*
X140220000Y-97530000D03*
X137680000Y-97530000D03*
X135140000Y-97530000D03*
X132600000Y-97530000D03*
X130060000Y-97530000D03*
X127520000Y-97530000D03*
X124980000Y-97530000D03*
X122440000Y-97530000D03*
X119900000Y-97530000D03*
X117360000Y-97530000D03*
X114820000Y-97530000D03*
X112280000Y-97530000D03*
X109740000Y-97530000D03*
X107200000Y-97530000D03*
X104660000Y-97530000D03*
X102120000Y-97530000D03*
X99580000Y-97530000D03*
X97040000Y-97530000D03*
D18*
X147805400Y-87050000D03*
X59848004Y-87005600D03*
D16*
X142194600Y-90714400D03*
X139654600Y-90714400D03*
X137114600Y-90714400D03*
D19*
X78805400Y-144874400D03*
X134685400Y-149827400D03*
D20*
X137200000Y-154700000D03*
X134660000Y-154700000D03*
X132120000Y-154700000D03*
X129580000Y-154700000D03*
X127040000Y-154700000D03*
X124500000Y-154700000D03*
X121960000Y-154700000D03*
X119420000Y-154700000D03*
X116880000Y-154700000D03*
X114340000Y-154700000D03*
X111800000Y-154700000D03*
X109260000Y-154700000D03*
X106720000Y-154700000D03*
X104180000Y-154700000D03*
X101640000Y-154700000D03*
X99100000Y-154700000D03*
X96560000Y-154700000D03*
X94020000Y-154700000D03*
X91480000Y-154700000D03*
X88940000Y-154700000D03*
X86400000Y-154700000D03*
D21*
X83860000Y-154700000D03*
D20*
X81320000Y-154700000D03*
X78780000Y-154700000D03*
X76240000Y-154700000D03*
D22*
X105950000Y-132462500D03*
X105300000Y-132462500D03*
X104650000Y-132462500D03*
X104000000Y-132462500D03*
X103350000Y-132462500D03*
X102700000Y-132462500D03*
X102050000Y-132462500D03*
X101400000Y-132462500D03*
X100750000Y-132462500D03*
X100100000Y-132462500D03*
X99450000Y-132462500D03*
X98800000Y-132462500D03*
X98800000Y-139662500D03*
X99450000Y-139662500D03*
X100100000Y-139662500D03*
X100750000Y-139662500D03*
X101400000Y-139662500D03*
X102050000Y-139662500D03*
X102700000Y-139662500D03*
X103350000Y-139662500D03*
X104000000Y-139662500D03*
X104650000Y-139662500D03*
X105300000Y-139662500D03*
X105950000Y-139662500D03*
D23*
X100450000Y-90450000D03*
X100450000Y-92850000D03*
X102050000Y-92850000D03*
X102050000Y-90450000D03*
D22*
X122200000Y-132462500D03*
X121550000Y-132462500D03*
X120900000Y-132462500D03*
X120250000Y-132462500D03*
X119600000Y-132462500D03*
X118950000Y-132462500D03*
X118300000Y-132462500D03*
X117650000Y-132462500D03*
X117000000Y-132462500D03*
X116350000Y-132462500D03*
X115700000Y-132462500D03*
X115050000Y-132462500D03*
X115050000Y-139662500D03*
X115700000Y-139662500D03*
X116350000Y-139662500D03*
X117000000Y-139662500D03*
X117650000Y-139662500D03*
X118300000Y-139662500D03*
X118950000Y-139662500D03*
X119600000Y-139662500D03*
X120250000Y-139662500D03*
X120900000Y-139662500D03*
X121550000Y-139662500D03*
X122200000Y-139662500D03*
D24*
X142400000Y-141000000D03*
X143400000Y-138800000D03*
X141400000Y-138800000D03*
D22*
X89750000Y-132462500D03*
X89100000Y-132462500D03*
X88450000Y-132462500D03*
X87800000Y-132462500D03*
X87150000Y-132462500D03*
X86500000Y-132462500D03*
X85850000Y-132462500D03*
X85200000Y-132462500D03*
X84550000Y-132462500D03*
X83900000Y-132462500D03*
X83250000Y-132462500D03*
X82600000Y-132462500D03*
X82600000Y-139662500D03*
X83250000Y-139662500D03*
X83900000Y-139662500D03*
X84550000Y-139662500D03*
X85200000Y-139662500D03*
X85850000Y-139662500D03*
X86500000Y-139662500D03*
X87150000Y-139662500D03*
X87800000Y-139662500D03*
X88450000Y-139662500D03*
X89100000Y-139662500D03*
X89750000Y-139662500D03*
D24*
X137000000Y-141000000D03*
X138000000Y-138800000D03*
X136000000Y-138800000D03*
X147850000Y-141000000D03*
X148850000Y-138800000D03*
X146850000Y-138800000D03*
M02*
