G04 #@! TF.GenerationSoftware,KiCad,Pcbnew,9.0.7*
G04 #@! TF.CreationDate,2026-02-22T21:24:28+09:00*
G04 #@! TF.ProjectId,vdp_cartridge,7664705f-6361-4727-9472-696467652e6b,rev?*
G04 #@! TF.SameCoordinates,Original*
G04 #@! TF.FileFunction,Legend,Bot*
G04 #@! TF.FilePolarity,Positive*
%FSLAX46Y46*%
G04 Gerber Fmt 4.6, Leading zero omitted, Abs format (unit mm)*
G04 Created by KiCad (PCBNEW 9.0.7) date 2026-02-22 21:24:28*
%MOMM*%
%LPD*%
G01*
G04 APERTURE LIST*
%ADD10C,0.150000*%
%ADD11C,0.300000*%
G04 APERTURE END LIST*
D10*
G36*
X117372535Y-121201116D02*
G01*
X117449665Y-121255054D01*
X117501946Y-121333683D01*
X117519274Y-121425230D01*
X117515061Y-121925134D01*
X117522564Y-121950075D01*
X117543821Y-121957924D01*
X118416867Y-121957924D01*
X118511522Y-121975538D01*
X118589058Y-122027716D01*
X118641087Y-122105086D01*
X118658667Y-122199724D01*
X118658667Y-122265303D01*
X118641339Y-122356851D01*
X118589058Y-122435480D01*
X118511363Y-122489231D01*
X118416867Y-122507287D01*
X117531547Y-122507287D01*
X117509329Y-122515132D01*
X117498758Y-122540077D01*
X117448118Y-123439545D01*
X117373955Y-124080880D01*
X117285717Y-124519726D01*
X117195747Y-124785200D01*
X117094708Y-124965463D01*
X116985627Y-125081253D01*
X116867746Y-125147433D01*
X116736354Y-125171305D01*
X116732324Y-125171305D01*
X116647345Y-125157720D01*
X116560931Y-125114883D01*
X116470007Y-125036116D01*
X116396528Y-124934583D01*
X116323328Y-124774525D01*
X116252753Y-124536029D01*
X116240480Y-124458177D01*
X116247564Y-124393870D01*
X116269056Y-124331048D01*
X116321922Y-124236385D01*
X116400214Y-124154827D01*
X116457550Y-124105734D01*
X116510321Y-124077586D01*
X116570391Y-124083203D01*
X116619197Y-124116660D01*
X116637985Y-124171313D01*
X116663892Y-124338625D01*
X116687799Y-124400113D01*
X116707594Y-124413114D01*
X116743534Y-124383398D01*
X116791787Y-124248591D01*
X116851209Y-123884450D01*
X116900023Y-123324746D01*
X116933091Y-122535863D01*
X116925916Y-122514446D01*
X116904332Y-122507287D01*
X116576436Y-122507287D01*
X116481971Y-122489225D01*
X116404428Y-122435480D01*
X116352004Y-122356837D01*
X116334635Y-122265303D01*
X116334635Y-122199724D01*
X116352255Y-122105100D01*
X116404428Y-122027716D01*
X116481812Y-121975544D01*
X116576436Y-121957924D01*
X116621498Y-121957924D01*
X116629742Y-121951879D01*
X116625712Y-121941621D01*
X116601739Y-121929347D01*
X116699534Y-121929347D01*
X116701549Y-121947666D01*
X116715837Y-121957924D01*
X116916605Y-121957924D01*
X116937862Y-121950075D01*
X116945364Y-121925134D01*
X116945364Y-121531659D01*
X116939319Y-121521584D01*
X116929061Y-121523599D01*
X116790546Y-121749203D01*
X116699534Y-121929347D01*
X116601739Y-121929347D01*
X116457550Y-121855525D01*
X116382791Y-121793950D01*
X116338848Y-121707880D01*
X116326392Y-121638271D01*
X116334412Y-121582544D01*
X116359182Y-121527629D01*
X116424761Y-121429260D01*
X116493946Y-121358932D01*
X116588709Y-121318618D01*
X116654288Y-121310375D01*
X116721999Y-121318578D01*
X116785446Y-121343164D01*
X116924848Y-121412774D01*
X116937304Y-121410942D01*
X116945364Y-121392440D01*
X116960519Y-121316050D01*
X117006914Y-121248826D01*
X117074867Y-121199462D01*
X117154375Y-121183246D01*
X117281504Y-121183246D01*
X117372535Y-121201116D01*
G37*
G36*
X119942006Y-123672497D02*
G01*
X120019527Y-123724532D01*
X120071548Y-123801927D01*
X120089136Y-123896723D01*
X120089136Y-124868138D01*
X120071802Y-124959655D01*
X120019527Y-125038131D01*
X119941832Y-125091883D01*
X119847336Y-125109939D01*
X119728451Y-125109939D01*
X119678954Y-125100265D01*
X119636310Y-125070921D01*
X119607158Y-125027688D01*
X119597292Y-124974567D01*
X119592542Y-124962653D01*
X119576776Y-124958264D01*
X119060385Y-124958264D01*
X118969007Y-124940459D01*
X118890209Y-124886457D01*
X118836212Y-124807811D01*
X118818402Y-124716463D01*
X118818402Y-124159040D01*
X119322702Y-124159040D01*
X119322702Y-124454147D01*
X119329846Y-124475579D01*
X119351279Y-124482723D01*
X119564503Y-124482723D01*
X119589461Y-124475253D01*
X119597292Y-124454147D01*
X119597292Y-124159040D01*
X119589095Y-124134448D01*
X119564503Y-124126251D01*
X119351279Y-124126251D01*
X119330172Y-124134082D01*
X119322702Y-124159040D01*
X118818402Y-124159040D01*
X118818402Y-123896723D01*
X118836472Y-123802102D01*
X118890209Y-123724532D01*
X118968838Y-123672251D01*
X119060385Y-123654923D01*
X119847336Y-123654923D01*
X119942006Y-123672497D01*
G37*
G36*
X118535909Y-122914605D02*
G01*
X118613604Y-122968356D01*
X118665879Y-123046833D01*
X118683213Y-123138349D01*
X118683213Y-123171139D01*
X118665626Y-123265935D01*
X118613604Y-123343330D01*
X118536083Y-123395366D01*
X118441413Y-123412939D01*
X118412653Y-123412939D01*
X118391547Y-123420771D01*
X118384077Y-123445729D01*
X118384077Y-124314745D01*
X118391547Y-124339703D01*
X118412653Y-124347535D01*
X118523295Y-124363838D01*
X118611359Y-124393595D01*
X118679183Y-124458177D01*
X118709843Y-124518696D01*
X118720033Y-124585305D01*
X118716003Y-124634398D01*
X118695487Y-124712250D01*
X118659601Y-124800448D01*
X118593088Y-124868138D01*
X118528465Y-124898777D01*
X118457716Y-124908988D01*
X118408623Y-124904958D01*
X117650433Y-124753283D01*
X117557854Y-124714161D01*
X117486484Y-124646671D01*
X117443222Y-124568512D01*
X117428965Y-124482723D01*
X117433178Y-124462207D01*
X117433178Y-124445903D01*
X117457820Y-124356466D01*
X117515061Y-124285985D01*
X117580229Y-124248967D01*
X117650433Y-124236893D01*
X117691282Y-124240923D01*
X117789651Y-124257409D01*
X117811245Y-124253221D01*
X117818411Y-124232679D01*
X117818411Y-123445729D01*
X117810908Y-123420788D01*
X117789651Y-123412939D01*
X117695012Y-123395360D01*
X117617643Y-123343330D01*
X117565479Y-123265921D01*
X117547851Y-123171139D01*
X117547851Y-123138349D01*
X117565225Y-123046847D01*
X117617643Y-122968356D01*
X117695187Y-122914611D01*
X117789651Y-122896549D01*
X118441413Y-122896549D01*
X118535909Y-122914605D01*
G37*
G36*
X119938518Y-123077443D02*
G01*
X120011284Y-123128274D01*
X120060560Y-123202230D01*
X120076863Y-123288009D01*
X120060566Y-123373820D01*
X120011284Y-123447927D01*
X119938532Y-123498615D01*
X119851366Y-123515521D01*
X119035656Y-123515521D01*
X118948647Y-123498624D01*
X118875921Y-123447927D01*
X118826639Y-123373820D01*
X118810342Y-123288009D01*
X118826644Y-123202230D01*
X118875921Y-123128274D01*
X118948661Y-123077434D01*
X119035656Y-123060497D01*
X119851366Y-123060497D01*
X119938518Y-123077443D01*
G37*
G36*
X119938691Y-122499024D02*
G01*
X120011284Y-122548137D01*
X120060396Y-122620730D01*
X120076863Y-122708055D01*
X120060396Y-122795379D01*
X120011284Y-122867973D01*
X119938691Y-122917085D01*
X119851366Y-122933552D01*
X119035656Y-122933552D01*
X118948489Y-122917093D01*
X118875921Y-122867973D01*
X118826809Y-122795379D01*
X118810342Y-122708055D01*
X118826809Y-122620730D01*
X118875921Y-122548137D01*
X118948489Y-122499016D01*
X119035656Y-122482557D01*
X119851366Y-122482557D01*
X119938691Y-122499024D01*
G37*
G36*
X120126638Y-121897575D02*
G01*
X120201793Y-121949864D01*
X120252429Y-122026515D01*
X120269387Y-122117842D01*
X120252435Y-122209200D01*
X120201793Y-122286003D01*
X120126653Y-122338148D01*
X120035830Y-122355612D01*
X118953773Y-122355612D01*
X118862951Y-122338148D01*
X118787810Y-122286003D01*
X118737026Y-122209186D01*
X118720033Y-122117842D01*
X118737031Y-122026529D01*
X118787810Y-121949864D01*
X118862965Y-121897575D01*
X118953773Y-121880071D01*
X120035830Y-121880071D01*
X120126638Y-121897575D01*
G37*
G36*
X119926102Y-121323242D02*
G01*
X119998827Y-121373939D01*
X120048096Y-121447920D01*
X120064407Y-121533857D01*
X120048104Y-121619636D01*
X119998827Y-121693592D01*
X119926102Y-121744289D01*
X119839093Y-121761186D01*
X119060385Y-121761186D01*
X118976335Y-121744535D01*
X118902482Y-121693592D01*
X118851627Y-121619482D01*
X118834888Y-121533857D01*
X118851635Y-121448075D01*
X118902482Y-121373939D01*
X118976335Y-121322996D01*
X119060385Y-121306345D01*
X119839093Y-121306345D01*
X119926102Y-121323242D01*
G37*
G36*
X115286650Y-121429260D02*
G01*
X115236321Y-121347190D01*
X115159522Y-121289858D01*
X115104845Y-121268333D01*
X115048880Y-121261282D01*
X114971027Y-121277585D01*
X114839869Y-121318618D01*
X114758912Y-121362579D01*
X114704497Y-121437503D01*
X114686021Y-121483830D01*
X114679951Y-121531659D01*
X114700467Y-121613724D01*
X114834688Y-121917925D01*
X114983301Y-122216211D01*
X114995574Y-122273547D01*
X114995574Y-124925474D01*
X115013636Y-125019939D01*
X115067381Y-125097482D01*
X115145872Y-125149901D01*
X115237374Y-125167275D01*
X115372563Y-125167275D01*
X115464096Y-125149906D01*
X115542739Y-125097482D01*
X115596484Y-125019939D01*
X115614546Y-124925474D01*
X115614546Y-123216202D01*
X115620774Y-123206127D01*
X115630849Y-123212172D01*
X115680601Y-123249389D01*
X115737461Y-123261448D01*
X115766038Y-123257235D01*
X115835644Y-123228677D01*
X115880893Y-123167109D01*
X115995565Y-122933552D01*
X116026291Y-122856849D01*
X116036598Y-122773634D01*
X116032568Y-122732601D01*
X116009209Y-122635822D01*
X115954715Y-122548137D01*
X115706127Y-122218767D01*
X115483281Y-121847161D01*
X115286650Y-121429260D01*
G37*
G36*
X112073269Y-122199724D02*
G01*
X112090598Y-122291272D01*
X112142878Y-122369900D01*
X112220448Y-122423638D01*
X112315070Y-122441708D01*
X113179872Y-122441708D01*
X113201305Y-122448852D01*
X113208449Y-122470284D01*
X113208449Y-122757147D01*
X113200979Y-122782105D01*
X113179872Y-122789937D01*
X112425712Y-122789937D01*
X112334209Y-122807311D01*
X112255719Y-122859729D01*
X112201981Y-122937299D01*
X112183911Y-123031921D01*
X112183911Y-123101530D01*
X112201716Y-123192909D01*
X112255719Y-123271706D01*
X112334350Y-123325559D01*
X112425712Y-123343330D01*
X113179872Y-123343330D01*
X113201290Y-123350505D01*
X113208449Y-123372090D01*
X113208449Y-123687713D01*
X113200979Y-123712671D01*
X113179872Y-123720502D01*
X112372406Y-123720502D01*
X112277941Y-123738564D01*
X112200398Y-123792310D01*
X112147979Y-123870800D01*
X112130605Y-123962303D01*
X112130605Y-124044185D01*
X112148233Y-124138967D01*
X112200398Y-124216376D01*
X112277767Y-124268406D01*
X112372406Y-124285985D01*
X113179872Y-124285985D01*
X113200979Y-124293817D01*
X113208449Y-124318775D01*
X113208449Y-124929504D01*
X113226519Y-125024126D01*
X113280256Y-125101696D01*
X113358885Y-125153976D01*
X113450433Y-125171305D01*
X113597894Y-125171305D01*
X113689442Y-125153976D01*
X113768070Y-125101696D01*
X113821664Y-125024141D01*
X113839695Y-124929504D01*
X113839695Y-122470284D01*
X113846869Y-122448867D01*
X113868454Y-122441708D01*
X113888971Y-122441708D01*
X113914420Y-122447788D01*
X113934033Y-122466254D01*
X114120090Y-122776868D01*
X114298749Y-123031921D01*
X114366157Y-123091219D01*
X114454454Y-123113803D01*
X114462697Y-123113803D01*
X114546398Y-123097529D01*
X114618402Y-123048224D01*
X114729227Y-122945825D01*
X114787328Y-122866486D01*
X114807079Y-122765391D01*
X114793690Y-122684246D01*
X114753773Y-122613716D01*
X114572953Y-122368876D01*
X114405813Y-122094971D01*
X114252700Y-121789530D01*
X114114285Y-121449776D01*
X114063958Y-121363472D01*
X113987339Y-121302132D01*
X113928527Y-121280620D01*
X113868454Y-121273555D01*
X113802875Y-121281615D01*
X113679960Y-121310375D01*
X113597807Y-121353578D01*
X113540558Y-121425230D01*
X113521986Y-121475023D01*
X113516012Y-121523599D01*
X113528285Y-121601451D01*
X113622441Y-121835009D01*
X113624639Y-121851495D01*
X113606137Y-121859555D01*
X112315070Y-121859555D01*
X112220448Y-121877625D01*
X112142878Y-121931362D01*
X112090603Y-122009839D01*
X112073269Y-122101355D01*
X112073269Y-122199724D01*
G37*
G36*
X109586729Y-121652297D02*
G01*
X109664424Y-121706048D01*
X109716699Y-121784525D01*
X109734033Y-121876041D01*
X109734033Y-124531999D01*
X109716705Y-124623547D01*
X109664424Y-124702175D01*
X109586743Y-124755784D01*
X109492233Y-124773800D01*
X109221673Y-124773800D01*
X109127194Y-124755778D01*
X109049665Y-124702175D01*
X108997241Y-124623533D01*
X108979872Y-124531999D01*
X108979872Y-123765565D01*
X108971675Y-123740973D01*
X108947083Y-123732775D01*
X108860987Y-123732775D01*
X108627795Y-123714276D01*
X108426881Y-123661581D01*
X108252629Y-123576997D01*
X108100781Y-123460200D01*
X107979620Y-123315571D01*
X107889860Y-123137568D01*
X107832408Y-122919073D01*
X107811720Y-122650719D01*
X108549394Y-122650719D01*
X108567687Y-122847547D01*
X108614973Y-122980610D01*
X108684698Y-123067727D01*
X108777709Y-123119742D01*
X108902020Y-123138349D01*
X108947083Y-123138349D01*
X108971675Y-123130152D01*
X108979872Y-123105560D01*
X108979872Y-122261273D01*
X108971675Y-122236681D01*
X108947083Y-122228484D01*
X108902020Y-122228484D01*
X108780117Y-122240947D01*
X108692929Y-122274104D01*
X108631460Y-122324838D01*
X108589666Y-122394495D01*
X108560658Y-122498927D01*
X108549394Y-122650719D01*
X107811720Y-122650719D01*
X107830488Y-122397007D01*
X107882424Y-122191490D01*
X107963122Y-122025152D01*
X108071310Y-121891016D01*
X108208963Y-121784676D01*
X108381086Y-121704745D01*
X108595237Y-121653005D01*
X108860987Y-121634241D01*
X109492233Y-121634241D01*
X109586729Y-121652297D01*
G37*
G36*
X107504623Y-121652311D02*
G01*
X107582193Y-121706048D01*
X107634468Y-121784525D01*
X107651802Y-121876041D01*
X107651802Y-124531999D01*
X107634474Y-124623547D01*
X107582193Y-124702175D01*
X107504638Y-124755769D01*
X107410002Y-124773800D01*
X107139442Y-124773800D01*
X107048080Y-124756028D01*
X106969449Y-124702175D01*
X106915446Y-124623378D01*
X106897641Y-124531999D01*
X106897641Y-123704016D01*
X106889793Y-123682759D01*
X106864852Y-123675256D01*
X106840305Y-123675256D01*
X106813374Y-123682643D01*
X106799272Y-123704016D01*
X106541169Y-124544272D01*
X106495018Y-124637011D01*
X106422284Y-124710235D01*
X106331013Y-124757924D01*
X106229576Y-124773800D01*
X105922196Y-124773800D01*
X105844822Y-124755620D01*
X105782795Y-124699977D01*
X105761062Y-124653956D01*
X105754218Y-124609851D01*
X105762278Y-124548302D01*
X106139450Y-123531825D01*
X106142544Y-123505366D01*
X106127177Y-123482732D01*
X106003039Y-123365568D01*
X105905334Y-123225560D01*
X105832929Y-123059209D01*
X105786913Y-122861456D01*
X105770521Y-122625989D01*
X106504166Y-122625989D01*
X106514749Y-122769077D01*
X106543232Y-122877992D01*
X106586232Y-122960113D01*
X106648088Y-123025714D01*
X106720599Y-123063877D01*
X106807516Y-123076983D01*
X106864852Y-123076983D01*
X106889793Y-123069481D01*
X106897641Y-123048224D01*
X106897641Y-122261273D01*
X106889444Y-122236681D01*
X106864852Y-122228484D01*
X106807516Y-122228484D01*
X106699253Y-122244077D01*
X106618983Y-122287336D01*
X106559495Y-122358962D01*
X106519538Y-122467169D01*
X106504166Y-122625989D01*
X105770521Y-122625989D01*
X105790748Y-122362597D01*
X105846359Y-122152646D01*
X105906094Y-122026268D01*
X105977875Y-121924272D01*
X106061598Y-121843252D01*
X106208457Y-121747834D01*
X106368978Y-121683517D01*
X106543462Y-121647190D01*
X106750180Y-121634241D01*
X107410002Y-121634241D01*
X107504623Y-121652311D01*
G37*
G36*
X104805534Y-121601185D02*
G01*
X104959615Y-121648118D01*
X105097428Y-121725183D01*
X105221785Y-121834486D01*
X105333998Y-121980638D01*
X105434299Y-122178755D01*
X105513489Y-122436552D01*
X105566482Y-122767641D01*
X105586057Y-123187625D01*
X105566502Y-123608915D01*
X105513344Y-123944118D01*
X105433531Y-124207904D01*
X105331983Y-124413114D01*
X105218199Y-124565648D01*
X105093133Y-124678995D01*
X104955622Y-124758409D01*
X104802956Y-124806511D01*
X104631129Y-124823075D01*
X104459301Y-124806511D01*
X104306636Y-124758409D01*
X104169124Y-124678995D01*
X104044058Y-124565648D01*
X103930274Y-124413114D01*
X103828726Y-124207904D01*
X103748914Y-123944118D01*
X103695756Y-123608915D01*
X103676200Y-123187625D01*
X104438421Y-123187625D01*
X104448679Y-123622133D01*
X104475424Y-123908997D01*
X104516457Y-124077158D01*
X104543863Y-124131910D01*
X104567748Y-124159040D01*
X104631129Y-124179557D01*
X104694693Y-124159040D01*
X104718470Y-124131936D01*
X104745984Y-124077158D01*
X104787017Y-123908997D01*
X104813578Y-123622133D01*
X104823836Y-123187625D01*
X104813578Y-122755316D01*
X104787017Y-122476512D01*
X104743969Y-122318793D01*
X104715160Y-122267914D01*
X104692678Y-122244970D01*
X104631129Y-122228484D01*
X104569763Y-122244970D01*
X104547171Y-122267941D01*
X104518472Y-122318793D01*
X104495695Y-122381997D01*
X104475424Y-122476512D01*
X104448679Y-122755316D01*
X104438421Y-123187625D01*
X103676200Y-123187625D01*
X103695775Y-122767641D01*
X103748769Y-122436552D01*
X103827958Y-122178755D01*
X103928259Y-121980638D01*
X104040472Y-121834486D01*
X104164829Y-121725183D01*
X104302643Y-121648118D01*
X104456723Y-121601185D01*
X104631129Y-121584965D01*
X104805534Y-121601185D01*
G37*
G36*
X102667782Y-124773800D02*
G01*
X102762419Y-124755769D01*
X102839974Y-124702175D01*
X102892254Y-124623547D01*
X102909583Y-124531999D01*
X102909583Y-122294063D01*
X102917431Y-122272806D01*
X102942372Y-122265303D01*
X103274482Y-122265303D01*
X103365875Y-122247538D01*
X103444658Y-122193679D01*
X103498517Y-122114896D01*
X103516282Y-122023503D01*
X103516282Y-121876041D01*
X103498511Y-121784680D01*
X103444658Y-121706048D01*
X103365861Y-121652046D01*
X103274482Y-121634241D01*
X101790706Y-121634241D01*
X101699359Y-121652051D01*
X101620713Y-121706048D01*
X101566717Y-121784694D01*
X101548906Y-121876041D01*
X101548906Y-122023503D01*
X101566711Y-122114882D01*
X101620713Y-122193679D01*
X101699345Y-122247532D01*
X101790706Y-122265303D01*
X102122632Y-122265303D01*
X102147574Y-122272806D01*
X102155422Y-122294063D01*
X102155422Y-124531999D01*
X102172790Y-124623533D01*
X102225214Y-124702175D01*
X102302769Y-124755769D01*
X102397406Y-124773800D01*
X102667782Y-124773800D01*
G37*
G36*
X100608465Y-121601185D02*
G01*
X100762545Y-121648118D01*
X100900359Y-121725183D01*
X101024716Y-121834486D01*
X101136929Y-121980638D01*
X101237230Y-122178755D01*
X101316420Y-122436552D01*
X101369413Y-122767641D01*
X101388988Y-123187625D01*
X101369432Y-123608915D01*
X101316275Y-123944118D01*
X101236462Y-124207904D01*
X101134914Y-124413114D01*
X101021130Y-124565648D01*
X100896064Y-124678995D01*
X100758553Y-124758409D01*
X100605887Y-124806511D01*
X100434060Y-124823075D01*
X100262232Y-124806511D01*
X100109566Y-124758409D01*
X99972055Y-124678995D01*
X99846989Y-124565648D01*
X99733205Y-124413114D01*
X99631657Y-124207904D01*
X99551845Y-123944118D01*
X99498687Y-123608915D01*
X99479131Y-123187625D01*
X100241352Y-123187625D01*
X100251610Y-123622133D01*
X100278355Y-123908997D01*
X100319387Y-124077158D01*
X100346794Y-124131910D01*
X100370678Y-124159040D01*
X100434060Y-124179557D01*
X100497624Y-124159040D01*
X100521400Y-124131936D01*
X100548915Y-124077158D01*
X100589948Y-123908997D01*
X100616509Y-123622133D01*
X100626767Y-123187625D01*
X100616509Y-122755316D01*
X100589948Y-122476512D01*
X100546900Y-122318793D01*
X100518091Y-122267914D01*
X100495609Y-122244970D01*
X100434060Y-122228484D01*
X100372693Y-122244970D01*
X100350101Y-122267941D01*
X100321403Y-122318793D01*
X100298626Y-122381997D01*
X100278355Y-122476512D01*
X100251610Y-122755316D01*
X100241352Y-123187625D01*
X99479131Y-123187625D01*
X99498706Y-122767641D01*
X99551699Y-122436552D01*
X99630889Y-122178755D01*
X99731190Y-121980638D01*
X99843403Y-121834486D01*
X99967760Y-121725183D01*
X100105574Y-121648118D01*
X100259654Y-121601185D01*
X100434060Y-121584965D01*
X100608465Y-121601185D01*
G37*
G36*
X98470713Y-124773800D02*
G01*
X98565350Y-124755769D01*
X98642905Y-124702175D01*
X98695185Y-124623547D01*
X98712514Y-124531999D01*
X98712514Y-122294063D01*
X98720362Y-122272806D01*
X98745303Y-122265303D01*
X99077413Y-122265303D01*
X99168806Y-122247538D01*
X99247589Y-122193679D01*
X99301448Y-122114896D01*
X99319213Y-122023503D01*
X99319213Y-121876041D01*
X99301442Y-121784680D01*
X99247589Y-121706048D01*
X99168791Y-121652046D01*
X99077413Y-121634241D01*
X97593637Y-121634241D01*
X97502290Y-121652051D01*
X97423644Y-121706048D01*
X97369647Y-121784694D01*
X97351837Y-121876041D01*
X97351837Y-122023503D01*
X97369642Y-122114882D01*
X97423644Y-122193679D01*
X97502276Y-122247532D01*
X97593637Y-122265303D01*
X97925563Y-122265303D01*
X97950505Y-122272806D01*
X97958353Y-122294063D01*
X97958353Y-124531999D01*
X97975721Y-124623533D01*
X98028145Y-124702175D01*
X98105700Y-124755769D01*
X98200337Y-124773800D01*
X98470713Y-124773800D01*
G37*
G36*
X96380422Y-124773800D02*
G01*
X96474933Y-124755784D01*
X96552613Y-124702175D01*
X96604894Y-124623547D01*
X96622222Y-124531999D01*
X96622222Y-123745049D01*
X96630466Y-123687713D01*
X97212435Y-121863768D01*
X97220678Y-121806249D01*
X97212585Y-121755407D01*
X97187889Y-121707880D01*
X97125295Y-121652608D01*
X97044457Y-121634241D01*
X96757594Y-121634241D01*
X96657116Y-121651157D01*
X96569100Y-121701835D01*
X96502305Y-121778323D01*
X96466518Y-121871828D01*
X96364119Y-122363672D01*
X96245234Y-123035951D01*
X96236990Y-123044194D01*
X96228747Y-123035951D01*
X96101802Y-122363672D01*
X95999220Y-121871828D01*
X95963469Y-121778308D01*
X95896821Y-121701835D01*
X95808677Y-121651144D01*
X95708327Y-121634241D01*
X95429524Y-121634241D01*
X95348686Y-121652608D01*
X95286092Y-121707880D01*
X95261396Y-121755407D01*
X95253302Y-121806249D01*
X95261546Y-121863768D01*
X95859818Y-123687713D01*
X95868062Y-123745049D01*
X95868062Y-124531999D01*
X95885430Y-124623533D01*
X95937854Y-124702175D01*
X96015383Y-124755778D01*
X96109862Y-124773800D01*
X96380422Y-124773800D01*
G37*
G36*
X94896987Y-121652297D02*
G01*
X94974682Y-121706048D01*
X95026957Y-121784525D01*
X95044292Y-121876041D01*
X95044292Y-124531999D01*
X95026963Y-124623547D01*
X94974682Y-124702175D01*
X94897002Y-124755784D01*
X94802491Y-124773800D01*
X94531931Y-124773800D01*
X94437452Y-124755778D01*
X94359923Y-124702175D01*
X94307499Y-124623533D01*
X94290131Y-124531999D01*
X94290131Y-123765565D01*
X94281933Y-123740973D01*
X94257341Y-123732775D01*
X94171245Y-123732775D01*
X93938053Y-123714276D01*
X93737139Y-123661581D01*
X93562887Y-123576997D01*
X93411040Y-123460200D01*
X93289879Y-123315571D01*
X93200119Y-123137568D01*
X93142666Y-122919073D01*
X93121978Y-122650719D01*
X93859653Y-122650719D01*
X93877945Y-122847547D01*
X93925232Y-122980610D01*
X93994956Y-123067727D01*
X94087967Y-123119742D01*
X94212278Y-123138349D01*
X94257341Y-123138349D01*
X94281933Y-123130152D01*
X94290131Y-123105560D01*
X94290131Y-122261273D01*
X94281933Y-122236681D01*
X94257341Y-122228484D01*
X94212278Y-122228484D01*
X94090375Y-122240947D01*
X94003188Y-122274104D01*
X93941718Y-122324838D01*
X93899924Y-122394495D01*
X93870917Y-122498927D01*
X93859653Y-122650719D01*
X93121978Y-122650719D01*
X93140747Y-122397007D01*
X93192682Y-122191490D01*
X93273380Y-122025152D01*
X93381568Y-121891016D01*
X93519221Y-121784676D01*
X93691344Y-121704745D01*
X93905495Y-121653005D01*
X94171245Y-121634241D01*
X94802491Y-121634241D01*
X94896987Y-121652297D01*
G37*
G36*
X92605588Y-124773800D02*
G01*
X92696981Y-124756034D01*
X92775764Y-124702175D01*
X92829623Y-124623392D01*
X92847388Y-124531999D01*
X92847388Y-121876041D01*
X92829617Y-121784680D01*
X92775764Y-121706048D01*
X92696967Y-121652046D01*
X92605588Y-121634241D01*
X91466012Y-121634241D01*
X91374664Y-121652051D01*
X91296019Y-121706048D01*
X91242022Y-121784694D01*
X91224211Y-121876041D01*
X91224211Y-122023503D01*
X91242016Y-122114882D01*
X91296019Y-122193679D01*
X91374650Y-122247532D01*
X91466012Y-122265303D01*
X92060438Y-122265303D01*
X92081855Y-122272478D01*
X92089014Y-122294063D01*
X92089014Y-122822727D01*
X92081855Y-122844311D01*
X92060438Y-122851486D01*
X91609627Y-122851486D01*
X91518248Y-122869291D01*
X91439450Y-122923294D01*
X91385453Y-123001939D01*
X91367643Y-123093287D01*
X91367643Y-123240931D01*
X91385448Y-123332310D01*
X91439450Y-123411108D01*
X91518234Y-123464967D01*
X91609627Y-123482732D01*
X92060438Y-123482732D01*
X92081870Y-123489876D01*
X92089014Y-123511308D01*
X92089014Y-124113977D01*
X92081870Y-124135410D01*
X92060438Y-124142554D01*
X91437435Y-124142554D01*
X91346088Y-124160364D01*
X91267442Y-124214361D01*
X91213445Y-124293007D01*
X91195635Y-124384354D01*
X91195635Y-124531999D01*
X91213440Y-124623378D01*
X91267442Y-124702175D01*
X91346074Y-124756028D01*
X91437435Y-124773800D01*
X92605588Y-124773800D01*
G37*
D11*
X72952032Y-151675228D02*
X72952032Y-152675228D01*
X73309174Y-151103800D02*
X73666317Y-152175228D01*
X73666317Y-152175228D02*
X72737746Y-152175228D01*
X72094889Y-152675228D02*
X71809175Y-152675228D01*
X71809175Y-152675228D02*
X71666318Y-152603800D01*
X71666318Y-152603800D02*
X71594889Y-152532371D01*
X71594889Y-152532371D02*
X71452032Y-152318085D01*
X71452032Y-152318085D02*
X71380603Y-152032371D01*
X71380603Y-152032371D02*
X71380603Y-151460942D01*
X71380603Y-151460942D02*
X71452032Y-151318085D01*
X71452032Y-151318085D02*
X71523461Y-151246657D01*
X71523461Y-151246657D02*
X71666318Y-151175228D01*
X71666318Y-151175228D02*
X71952032Y-151175228D01*
X71952032Y-151175228D02*
X72094889Y-151246657D01*
X72094889Y-151246657D02*
X72166318Y-151318085D01*
X72166318Y-151318085D02*
X72237746Y-151460942D01*
X72237746Y-151460942D02*
X72237746Y-151818085D01*
X72237746Y-151818085D02*
X72166318Y-151960942D01*
X72166318Y-151960942D02*
X72094889Y-152032371D01*
X72094889Y-152032371D02*
X71952032Y-152103800D01*
X71952032Y-152103800D02*
X71666318Y-152103800D01*
X71666318Y-152103800D02*
X71523461Y-152032371D01*
X71523461Y-152032371D02*
X71452032Y-151960942D01*
X71452032Y-151960942D02*
X71380603Y-151818085D01*
X140034174Y-152534228D02*
X140891317Y-152534228D01*
X140462746Y-152534228D02*
X140462746Y-151034228D01*
X140462746Y-151034228D02*
X140605603Y-151248514D01*
X140605603Y-151248514D02*
X140748460Y-151391371D01*
X140748460Y-151391371D02*
X140891317Y-151462800D01*
M02*
